# xmcd
#
# Track frame offsets: 
#        150
#        17419
#        33113
#        50115
#        64404
#        77697
#        93404
#        109735
#        119705
#
# Disc length: 1840 seconds
#
# Revision: 0
# Processed by: cddbd v1.5.2PL0 Copyright (c) Steve Scherf et al.
# Submitted via: ExactAudioCopy v1.0b3
#
DISCID=73072e09
DTITLE=Liebe zu Dritt - Ohne Helm
DYEAR=2013
DGENRE=Alt. Rock
TTITLE0=Weltraumheldin
TTITLE1=Ohne Helm
TTITLE2=Hasenrasen
TTITLE3=Echo
TTITLE4=Kleine Melodie
TTITLE5=Ohrwurminfektion
TTITLE6=Volle Ladung
TTITLE7=Punkballade
TTITLE8=Fluggerät
EXTD=
EXTT0=
EXTT1=
EXTT2=
EXTT3=
EXTT4=
EXTT5=
EXTT6=
EXTT7=
EXTT8=
PLAYORDER=
